<svg width="12" height="12" viewBox="0 0 12 12" fill="none" xmlns="http://www.w3.org/2000/svg">
<path d="M0 8.39999H12L9.6 12H1.2L0 8.39999Z" fill="#256696"/>
<path d="M0 8.39999H12L9.6 12H1.2L0 8.39999Z" fill="#256696"/>
<rect x="0.720001" y="8.03999" width="2.4" height="0.36" fill="#256696"/>
<rect x="0.720001" y="8.03999" width="2.4" height="0.36" fill="#256696"/>
<rect x="4.67999" width="0.6" height="8.4" fill="#256696"/>
<rect x="4.67999" width="0.6" height="8.4" fill="#256696"/>
<path d="M11.9 3.99888C11.9 6.98974 7.76822 6.98974 5.78 6.98974C3.79177 6.98974 6.26 7.21632 6.26 5.53963C6.26 4.03799 6.44 1.09866 5 1.00802C6.98 0.962709 12.02 1.00802 11.9 3.99888Z" fill="#256696"/>
<path d="M3.36 0.23999H4.56V1.43999H3.6L3.36 0.23999Z" fill="#256696"/>
<path d="M3.36 0.23999H4.56V1.43999H3.6L3.36 0.23999Z" fill="#256696"/>
<rect x="4.56" y="0.359985" width="0.12" height="0.12" fill="#256696"/>
<rect x="4.56" y="0.359985" width="0.12" height="0.12" fill="#256696"/>
<rect x="4.56" y="1.2" width="0.12" height="0.12" fill="#256696"/>
<rect x="4.56" y="1.2" width="0.12" height="0.12" fill="#256696"/>
<rect x="4.56" y="0.959991" width="0.12" height="0.12" fill="#256696"/>
<rect x="4.56" y="0.959991" width="0.12" height="0.12" fill="#256696"/>
<rect x="4.56" y="0.600006" width="0.12" height="0.12" fill="#256696"/>
<rect x="4.56" y="0.600006" width="0.12" height="0.12" fill="#256696"/>
</svg>
